                    =!DK GROUP HD BLURAY RELEAESEES!=

===================================================================================



  The Spy Next Door(2010)1920*1080p BDRip In[Hindi-Eng(DTS)]6CH.AC3 By !!!dip


===================================================================================

Storyline:

Former CIA spy Bob Ho takes on his toughest assignment to date: looking after his girlfriend's three kids, who haven't exactly warmed to their mom's beau. And when one of the youngsters accidentally downloads a top-secret formula, Bob's longtime nemesis, a Russian terrorist, pays a visit to the family.

Cast:


Jackie Chan............Bob Ho
Amber Valletta.........Gillian
Madeline Carroll.......Farren
Will Shadley...........Ian
Alina Foley............Nora
Magnús Scheving........Poldark (as Magnus Scheving)
Billy Ray Cyrus........Colton James
George Lopez...........Glaze
Katherine Boecher......Creel
Mia Stallard...........Cute Girl
Maverick McWilliams....Chad
Quinn Mason............Carl
Margaret Murphy........Mom
Esodie Geiger..........Principal
Arron Shiver...........Scientist


Directors :Brian Levant
Writers :Jonathan Bernstein (screenplay), James Greer (screenplay)
Stars: Jackie Chan, Amber Valletta and Billy Ray Cyrus
Genre: Action | Comedy | Family
Language:[Hindi-Tamil-Telugu]6CH.AC3
Format :Color, Dubbed,Widescreen
Release Date :15 January 2010 (USA)
Run Time :01H:34M:19S
Encoder: Deep Shikha




Video Specifications:


Video
ID : 1
Format : AVC
Format/Info : Advanced Video Codec
Format profile : High@L4.0
Format settings, CABAC : Yes
Format settings, ReFrames : 4 frames
Muxing mode : Header stripping
Codec ID : V_MPEG4/ISO/AVC
Duration : 1h 34mn
Bit rate : 4 500 Kbps
Width : 1 920 pixels
Height : 1 080 pixels
Display aspect ratio : 16:9
Frame rate mode : Variable
Frame rate : 23.976 fps
Color space : YUV
Chroma subsampling : 4:2:0
Bit depth : 8 bits
Scan type : Progressive
Bits/(Pixel*Frame) : 0.091
Stream size : 2.88 GiB (77%)
Title : !!!dip
Team : DK Group HD Bluray Releases




Audio Specifications:

Audio #1
ID : 2
Format : DTS
Format/Info : Digital Theater Systems
Muxing mode : Header stripping
Codec ID : A_DTS
Duration : 1h 34mn
Bit rate mode : Constant
Bit rate : 755 Kbps
Channel(s) : 6 channels
Channel positions : Front: L C R, Side: L R, LFE
Sampling rate : 48.0 KHz
Bit depth : 24 bits
Compression mode : Lossy
Stream size : 509 MiB (13%)
Title : !!!dip[DTS]
Language : English

Audio #2
ID : 3
Format : AC-3
Format/Info : Audio Coding 3
Mode extension : CM (complete main)
Muxing mode : Header stripping
Codec ID : A_AC3
Duration : 1h 34mn
Bit rate mode : Constant
Bit rate : 448 Kbps
Channel(s) : 6 channels
Channel positions : Front: L C R, Side: L R, LFE
Sampling rate : 48.0 KHz
Bit depth : 16 bits
Compression mode : Lossy
Stream size : 302 MiB (8%)
Title : !!!dip
Language : Hindi

Text
ID : 4
Format : UTF-8
Codec ID : S_TEXT/UTF8
Codec ID/Info : UTF-8 Plain Text
Title : !!!dip
Language : English


SAMPLE IMAGE:

    
http://img525.imageshack.us/img525/1655/62341165.jpg
 
http://img684.imageshack.us/img684/263/24577007.jpg
 
http://img408.imageshack.us/img408/6669/99112941.jpg
 
http://img197.imageshack.us/img197/4038/55223401.jpg
 
http://img580.imageshack.us/img580/2227/58890117.jpg


VIDEO SAMPLE IS AVAILABLE	